
<global>
ampeg_attack=0.002
ampeg_release=0.3
</global>

<group>
group_label=PP

<region>
end=184800
hikey=D#2
hivel=63
lokey=C2
lovel=0
offset=18669
pitch_keycenter=D2
sample=Fender_Stratocaster_Plop_PP_D3.opus
volume=+7.21
</region>

<region>
end=184800
hikey=F2
hivel=63
lokey=E2
lovel=0
offset=19795
pitch_keycenter=E2
sample=Fender_Stratocaster_Plop_PP_E3.opus
volume=+7.20
</region>

<region>
end=176747
hikey=G2
hivel=63
lokey=F#2
lovel=0
offset=15900
pitch_keycenter=F#2
sample=Fender_Stratocaster_Plop_PP_F#3.opus
volume=+5.56
</region>

<region>
end=174771
hikey=A2
hivel=63
lokey=G#2
lovel=0
offset=19451
pitch_keycenter=G#2
sample=Fender_Stratocaster_Plop_PP_G#3.opus
volume=+6.33
</region>

<region>
end=170527
hikey=B2
hivel=63
lokey=A#2
lovel=0
offset=18008
pitch_keycenter=A#2
sample=Fender_Stratocaster_Plop_PP_A#3.opus
volume=+6.95
</region>

<region>
end=176161
hikey=C#3
hivel=63
lokey=C3
lovel=0
offset=17542
pitch_keycenter=C3
sample=Fender_Stratocaster_Plop_PP_C4.opus
volume=+7.55
</region>

<region>
end=184800
hikey=D#3
hivel=63
lokey=D3
lovel=0
offset=18544
pitch_keycenter=D3
sample=Fender_Stratocaster_Plop_PP_D4.opus
volume=+6.51
</region>

<region>
end=187404
hikey=F3
hivel=63
lokey=E3
lovel=0
offset=20009
pitch_keycenter=E3
sample=Fender_Stratocaster_Plop_PP_E4.opus
volume=+9.19
</region>

<region>
end=184800
hikey=G3
hivel=63
lokey=F#3
lovel=0
offset=18606
pitch_keycenter=F#3
sample=Fender_Stratocaster_Plop_PP_F#4.opus
volume=+6.56
</region>

<region>
end=175607
hikey=A3
hivel=63
lokey=G#3
lovel=0
offset=20576
pitch_keycenter=G#3
sample=Fender_Stratocaster_Plop_PP_G#4.opus
volume=+9.28
</region>

<region>
end=184800
hikey=B3
hivel=63
lokey=A#3
lovel=0
offset=20858
pitch_keycenter=A#3
sample=Fender_Stratocaster_Plop_PP_A#4.opus
volume=+10.24
</region>

<region>
end=184800
hikey=C#4
hivel=63
lokey=C4
lovel=0
offset=20758
sample=Fender_Stratocaster_Plop_PP_C5.opus
volume=+5.71
</region>

<region>
end=184800
hikey=D#4
hivel=63
lokey=D4
lovel=0
offset=20226
pitch_keycenter=D4
sample=Fender_Stratocaster_Plop_PP_D5.opus
volume=+5.79
</region>

<region>
end=184800
hikey=F4
hivel=63
lokey=E4
lovel=0
offset=19173
pitch_keycenter=E4
sample=Fender_Stratocaster_Plop_PP_E5.opus
volume=+8.04
</region>

<region>
end=184800
hikey=G4
hivel=63
lokey=F#4
lovel=0
offset=18786
pitch_keycenter=F#4
sample=Fender_Stratocaster_Plop_PP_F#5.opus
volume=+11.01
</region>

<region>
end=192078
hikey=A4
hivel=63
lokey=G#4
lovel=0
offset=20192
pitch_keycenter=G#4
sample=Fender_Stratocaster_Plop_PP_G#5.opus
volume=+10.11
</region>

<region>
end=184800
hikey=B4
hivel=63
lokey=A#4
lovel=0
offset=19093
pitch_keycenter=A#4
sample=Fender_Stratocaster_Plop_PP_A#5.opus
volume=+9.77
</region>

<region>
end=192164
hikey=C#5
hivel=63
lokey=C5
lovel=0
offset=17836
pitch_keycenter=C5
sample=Fender_Stratocaster_Plop_PP_C6.opus
volume=+14.66
</region>

<region>
end=172207
hikey=D#5
hivel=63
lokey=D5
lovel=0
offset=20858
pitch_keycenter=D5
sample=Fender_Stratocaster_Plop_PP_D6.opus
volume=+12.94
</region>

<region>
end=162487
hikey=F5
hivel=63
lokey=E5
lovel=0
offset=20119
pitch_keycenter=E5
sample=Fender_Stratocaster_Plop_PP_E6.opus
volume=+12.48
</region>

<region>
end=191750
hikey=G5
hivel=63
lokey=F#5
lovel=0
offset=20164
pitch_keycenter=F#5
sample=Fender_Stratocaster_Plop_PP_F#6.opus
volume=+9.13
</region>

<region>
end=167736
hikey=A5
hivel=63
lokey=G#5
lovel=0
offset=19918
pitch_keycenter=G#5
sample=Fender_Stratocaster_Plop_PP_G#6.opus
volume=+7.84
</region>

<region>
end=168056
hikey=B5
hivel=63
lokey=A#5
lovel=0
offset=19464
pitch_keycenter=A#5
sample=Fender_Stratocaster_Plop_PP_A#6.opus
volume=+6.38
</region>

<region>
end=184592
hikey=C#6
hivel=63
lokey=C6
lovel=0
offset=20387
pitch_keycenter=C6
sample=Fender_Stratocaster_Plop_PP_C7.opus
volume=+7.39
</region>
</group>

<group>
group_label=FF

<region>
end=190912
hikey=D#2
hivel=127
lokey=C2
lovel=64
offset=17007
pitch_keycenter=D2
sample=Fender_Stratocaster_Plop_FF_D3.opus
volume=+2.17
</region>

<region>
end=184800
hikey=F2
hivel=127
lokey=E2
lovel=64
offset=18887
pitch_keycenter=E2
sample=Fender_Stratocaster_Plop_FF_E3.opus
volume=+5.76
</region>

<region>
end=172055
hikey=G2
hivel=127
lokey=F#2
lovel=64
offset=18119
pitch_keycenter=F#2
sample=Fender_Stratocaster_Plop_FF_F#3.opus
volume=+4.87
</region>

<region>
end=175032
hikey=A2
hivel=127
lokey=G#2
lovel=64
offset=19026
pitch_keycenter=G#2
sample=Fender_Stratocaster_Plop_FF_G#3.opus
volume=+2.00
</region>

<region>
end=166331
hikey=B2
hivel=127
lokey=A#2
lovel=64
offset=14153
pitch_keycenter=A#2
sample=Fender_Stratocaster_Plop_FF_A#3.opus
volume=-0.11
</region>

<region>
end=184800
hikey=C#3
hivel=127
lokey=C3
lovel=64
offset=20462
pitch_keycenter=C3
sample=Fender_Stratocaster_Plop_FF_C4.opus
volume=+3.94
</region>

<region>
end=176172
hikey=D#3
hivel=127
lokey=D3
lovel=64
offset=18561
pitch_keycenter=D3
sample=Fender_Stratocaster_Plop_FF_D4.opus
volume=+2.64
</region>

<region>
end=178337
hikey=F3
hivel=127
lokey=E3
lovel=64
offset=19486
pitch_keycenter=E3
sample=Fender_Stratocaster_Plop_FF_E4.opus
volume=+2.81
</region>

<region>
end=184800
hikey=G3
hivel=127
lokey=F#3
lovel=64
offset=18249
pitch_keycenter=F#3
sample=Fender_Stratocaster_Plop_FF_F#4.opus
volume=+4.95
</region>

<region>
end=184800
hikey=A3
hivel=127
lokey=G#3
lovel=64
offset=20292
pitch_keycenter=G#3
sample=Fender_Stratocaster_Plop_FF_G#4.opus
volume=+9.11
</region>

<region>
end=184800
hikey=B3
hivel=127
lokey=A#3
lovel=64
offset=18386
pitch_keycenter=A#3
sample=Fender_Stratocaster_Plop_FF_A#4.opus
volume=+1.98
</region>

<region>
end=184800
hikey=C#4
hivel=127
lokey=C4
lovel=64
offset=19732
sample=Fender_Stratocaster_Plop_FF_C5.opus
volume=+2.52
</region>

<region>
end=178747
hikey=D#4
hivel=127
lokey=D4
lovel=64
offset=19299
pitch_keycenter=D4
sample=Fender_Stratocaster_Plop_FF_D5.opus
volume=+3.43
</region>

<region>
end=175739
hikey=F4
hivel=127
lokey=E4
lovel=64
offset=17860
pitch_keycenter=E4
sample=Fender_Stratocaster_Plop_FF_E5.opus
volume=+2.60
</region>

<region>
end=184800
hikey=G4
hivel=127
lokey=F#4
lovel=64
offset=18956
pitch_keycenter=F#4
sample=Fender_Stratocaster_Plop_FF_F#5.opus
volume=+7.50
</region>

<region>
end=184800
hikey=A4
hivel=127
lokey=G#4
lovel=64
offset=19145
pitch_keycenter=G#4
sample=Fender_Stratocaster_Plop_FF_G#5.opus
volume=+7.34
</region>

<region>
end=184800
hikey=B4
hivel=127
lokey=A#4
lovel=64
offset=16705
pitch_keycenter=A#4
sample=Fender_Stratocaster_Plop_FF_A#5.opus
volume=+11.70
</region>

<region>
end=184800
hikey=C#5
hivel=127
lokey=C5
lovel=64
offset=18929
pitch_keycenter=C5
sample=Fender_Stratocaster_Plop_FF_C6.opus
volume=+12.16
</region>

<region>
end=184800
hikey=D#5
hivel=127
lokey=D5
lovel=64
offset=18151
pitch_keycenter=D5
sample=Fender_Stratocaster_Plop_FF_D6.opus
volume=+11.37
</region>

<region>
end=184800
hikey=F5
hivel=127
lokey=E5
lovel=64
offset=19420
pitch_keycenter=E5
sample=Fender_Stratocaster_Plop_FF_E6.opus
volume=+9.37
</region>

<region>
end=184800
hikey=G5
hivel=127
lokey=F#5
lovel=64
offset=18937
pitch_keycenter=F#5
sample=Fender_Stratocaster_Plop_FF_F#6.opus
volume=+10.39
</region>

<region>
end=184800
hikey=A5
hivel=127
lokey=G#5
lovel=64
offset=21578
pitch_keycenter=G#5
sample=Fender_Stratocaster_Plop_FF_G#6.opus
volume=+10.15
</region>

<region>
end=184800
hikey=B5
hivel=127
lokey=A#5
lovel=64
offset=22301
pitch_keycenter=A#5
sample=Fender_Stratocaster_Plop_FF_A#6.opus
volume=+8.21
</region>

<region>
end=184800
hikey=C#6
hivel=127
lokey=C6
lovel=64
offset=19816
pitch_keycenter=C6
sample=Fender_Stratocaster_Plop_FF_C7.opus
volume=+6.95
</region>
</group>